<svg xmlns="http://www.w3.org/2000/svg" xmlns:xlink="http://www.w3.org/1999/xlink" width="500" zoomAndPan="magnify" viewBox="0 0 375 374.999991" height="500" preserveAspectRatio="xMidYMid meet" version="1.0"><defs><g/><clipPath id="5122b52ece"><path d="M 92 9.46875 L 280 9.46875 L 280 275 L 92 275 Z M 92 9.46875 " clip-rule="nonzero"/></clipPath><clipPath id="5fc30c77fe"><path d="M 62.472656 71 L 312.222656 71 L 312.222656 303.46875 L 62.472656 303.46875 Z M 62.472656 71 " clip-rule="nonzero"/></clipPath></defs><rect x="-37.5" width="450" fill="#ffffff" y="-37.499999" height="449.999989" fill-opacity="1"/><rect x="-37.5" width="450" fill="#f1f0f0" y="-37.499999" height="449.999989" fill-opacity="1"/><g clip-path="url(#5122b52ece)"><path fill="#000000" d="M 92.503906 60.546875 C 92.691406 60.570312 92.882812 60.644531 93.058594 60.621094 C 108.546875 58.441406 122.011719 67.660156 135.269531 74.160156 C 145.160156 79.109375 155.332031 83.050781 166.597656 83.464844 C 169.972656 83.707031 173.570312 84.699219 176.367188 86.671875 C 161.84375 89.769531 146.457031 94.378906 136.546875 106.253906 C 141.066406 97.148438 149.246094 90.15625 159.121094 86.902344 C 151.941406 85.179688 145.003906 82.859375 138.40625 79.484375 C 137.601562 79.097656 136.988281 79.070312 136.195312 79.476562 C 123.96875 85.449219 114.597656 96.910156 115.011719 110.996094 C 119.945312 161.71875 188.371094 162.320312 223.546875 182.664062 C 246.902344 194.394531 284.453125 222.421875 262.746094 250.933594 C 254.191406 261.570312 241 267.019531 227.71875 268.339844 C 196.511719 272.039062 165.84375 261.304688 139.070312 246.398438 C 167.171875 268.402344 205.101562 280.988281 240.496094 271.980469 C 257.597656 267.222656 276.492188 255.121094 276.433594 235.4375 C 278.132812 237.609375 278.34375 240.542969 279.339844 243.070312 C 282.601562 228.605469 272.117188 215.828125 265.285156 204.371094 C 270.824219 207.011719 275.636719 211.027344 279.703125 215.640625 C 271.675781 199.363281 252.125 193.671875 239.890625 181.332031 C 247.773438 181.105469 255.585938 183.34375 262.070312 187.9375 C 249.703125 175.023438 230.058594 174.808594 214.929688 166.765625 C 223.914062 162.960938 233.476562 162.699219 242.902344 165.238281 C 229.28125 157.59375 213.183594 161.394531 198.472656 162.582031 C 201.644531 158.546875 204.992188 154.460938 205.546875 149.144531 C 201.324219 158.769531 189.96875 161.496094 180.527344 162.992188 C 187.972656 156.835938 198.078125 152.539062 202.867188 143.734375 C 177.496094 166.78125 124.34375 137.085938 146.183594 107.230469 C 135.996094 109.203125 134.453125 121.597656 137.148438 129.925781 C 129.890625 119.832031 132.449219 106.34375 145.507812 103.230469 C 158.617188 99.414062 175.160156 98.78125 185.957031 108.425781 C 186.742188 109.179688 186.707031 109.394531 185.765625 109.625 C 174.34375 112.902344 155.292969 123.699219 153.882812 136.570312 C 165.1875 120.054688 187.59375 120.191406 205.273438 123.21875 C 199.921875 127.003906 195.289062 131.660156 193.398438 138.117188 C 201.335938 131.476562 211.941406 126.941406 222.390625 129.523438 C 225.265625 130.273438 228.695312 131.976562 229.109375 135.269531 C 229.339844 137.65625 229.179688 137.863281 226.757812 138.074219 C 222.824219 138.570312 218.695312 139.496094 215.34375 141.59375 C 221.53125 140.902344 228.835938 140.429688 233.703125 145.09375 C 236.542969 148.292969 240.0625 150.375 243.800781 152.273438 C 239.25 154.027344 234.261719 153.949219 229.460938 154.09375 C 238.285156 156.175781 247.859375 156.882812 256.285156 152.8125 C 257.179688 152.378906 257.039062 153.117188 256.96875 153.558594 C 256.464844 157.71875 253.957031 160.960938 251.335938 164.035156 C 255.714844 162.164062 259.492188 158.222656 261.164062 153.730469 C 262.398438 149.027344 266.152344 145.882812 268.574219 141.921875 C 264.089844 143.484375 259.308594 145.238281 254.773438 142.78125 C 253.914062 142.382812 253.878906 142.039062 254.746094 141.570312 C 256.476562 140.507812 258.097656 138.78125 258.328125 136.765625 C 250.542969 143.300781 241.5 135.613281 235.351562 130.480469 C 237.664062 129.933594 240.476562 130.042969 242.03125 127.921875 C 234.773438 129.777344 228.003906 125.363281 224.394531 119.210938 C 219.582031 112.90625 213.070312 108.691406 205.769531 105.855469 C 205.613281 105.722656 205.402344 105.285156 205.835938 105.25 C 217.222656 104.421875 227.191406 110.707031 237.421875 114.691406 C 243.132812 116.949219 243.113281 123.957031 245.496094 128.730469 C 245.753906 126.039062 246.070312 123.375 246.960938 120.796875 C 247.238281 118.480469 249.21875 120.617188 250.507812 120.882812 C 255.035156 122.636719 259.621094 123.386719 264.316406 121.558594 C 265.105469 121.25 265.4375 121.65625 265.84375 122.140625 C 269.464844 126.066406 268.097656 131.609375 264.933594 135.773438 C 270.875 131.953125 278.8125 124.046875 276.777344 116.339844 C 273.683594 107.0625 266.320312 104.070312 258.3125 99.859375 C 258.410156 101.894531 259.523438 103.820312 260.050781 105.789062 C 261.289062 111.609375 256.214844 110.75 263.40625 116.09375 C 259.800781 115.757812 255.679688 112.113281 255.691406 108.335938 C 255.925781 107.144531 255.410156 106.722656 254.621094 106.34375 C 247.78125 102.378906 240.246094 100.15625 232.332031 101.007812 C 236.148438 98.828125 241.007812 99.117188 245.25 98.757812 C 244.464844 97.804688 242.949219 98.035156 242.128906 97.167969 C 242.695312 96.113281 250.8125 96.265625 249.421875 94.921875 C 237.804688 83.4375 226.097656 71.960938 216.21875 58.933594 C 217.101562 63.839844 219.175781 68.566406 221.917969 72.765625 C 222.710938 73.785156 221.492188 73.621094 220.84375 73.21875 C 211.316406 69.238281 201.546875 65.984375 191.480469 63.726562 C 187.101562 62.746094 183.328125 60.960938 179.832031 58.179688 C 171.3125 50.925781 160.917969 47.25 150.566406 43.445312 C 131.148438 35.191406 114.671875 21.789062 97.804688 9.5 C 112.464844 32.234375 135.136719 49.941406 160.925781 58.332031 C 164.125 59.332031 166.964844 61.003906 169.402344 63.359375 C 173.761719 67.886719 179.117188 71.289062 184.160156 74.851562 C 165.738281 71.90625 146.765625 69.242188 129.496094 61.574219 C 117.96875 56.828125 103.898438 54.375 92.503906 60.546875 Z M 218.242188 86.816406 C 223.621094 89.945312 228.59375 93.789062 234.671875 95.445312 C 232.097656 96.871094 228.628906 97.671875 225.894531 96.042969 C 222.554688 93.390625 220.117188 89.773438 217.378906 86.460938 C 217.882812 86.667969 218.074219 86.714844 218.242188 86.816406 Z M 207.394531 83.78125 C 216.390625 88.195312 218.226562 99.25 229.191406 100.351562 C 228.394531 101.269531 227.480469 100.996094 226.097656 101.382812 C 213.652344 98.375 213.855469 91.546875 206.246094 83.476562 C 206.632812 83.578125 207.058594 83.597656 207.394531 83.78125 Z M 207.394531 83.78125 " fill-opacity="1" fill-rule="nonzero"/></g><g clip-path="url(#5fc30c77fe)"><path fill="#000000" d="M 120.234375 244.542969 C 110.1875 232.359375 95.015625 211.476562 99.347656 195.085938 C 102.277344 207.726562 108.410156 221.949219 120.664062 227.890625 C 119.996094 223.390625 117.722656 219.125 116.683594 214.652344 C 135.019531 237.113281 162.421875 250.636719 191.171875 253.242188 C 203.0625 254.320312 216.796875 253.054688 224.976562 243.308594 C 237.144531 229.710938 224.550781 212.6875 215.445312 201.335938 C 223.007812 206.664062 229.800781 213.96875 234.621094 222.011719 C 243.480469 236.476562 232.238281 253.382812 217.210938 257.183594 C 226.601562 256.738281 236.257812 253.863281 243.695312 247.949219 C 255.363281 238.386719 245.082031 221.691406 237.636719 212.625 C 221.074219 194.203125 196.925781 184.941406 173.96875 177.257812 C 147.351562 168.546875 113.734375 153.535156 110.570312 122 C 109.058594 104.707031 116.59375 87.609375 129.320312 76.027344 C 131.269531 74.730469 125.375 73.128906 124.347656 72.050781 C 123.667969 71.644531 123.128906 71.710938 122.476562 72.058594 C 119.285156 73.769531 116.007812 75.332031 112.886719 77.152344 C 108.25 79.9375 103.746094 83.289062 100.808594 87.929688 C 106.046875 84.101562 112.101562 81.273438 118.644531 81.277344 C 107.679688 92.457031 93.496094 103.03125 90.050781 119.28125 C 94.257812 112.378906 100.003906 106.460938 107.109375 102.554688 C 107.050781 108.796875 104.34375 114.851562 102.007812 120.574219 C 96.328125 132.898438 90.515625 146.585938 93.488281 160.378906 C 93.871094 150.90625 98.527344 142.417969 105.351562 136.003906 C 106.046875 135.328125 106.238281 135.417969 106.449219 136.417969 C 109.117188 154.382812 115.53125 175.570312 132.828125 184.351562 C 125.121094 177.679688 122.1875 167.363281 122.144531 157.472656 C 134.046875 170.546875 147.023438 182.011719 163.480469 189.070312 C 171.363281 192.96875 183.4375 199.863281 182.289062 210.066406 C 187.507812 204.101562 182.769531 194.121094 177.917969 189.207031 C 172.789062 183.679688 165.625 181.339844 158.972656 178.394531 C 178.820312 181.507812 203.199219 196.679688 205.550781 218.351562 C 205.882812 238.882812 181.214844 235.066406 168.007812 230.917969 C 181.785156 236.691406 202.515625 242.441406 212.398438 227.308594 C 217.429688 234.238281 214.167969 241.484375 206.613281 244.488281 C 195.238281 249.117188 182.34375 246.359375 170.707031 244.015625 C 146.089844 238.214844 125.347656 221.886719 113.25 199.746094 C 113.617188 205.417969 113.679688 211.246094 112.761719 216.863281 C 106.3125 206.203125 103.167969 194.09375 103.324219 181.574219 C 96.253906 187.183594 90.917969 196.144531 90.53125 205.28125 C 70.789062 183.019531 65.539062 148.6875 87.503906 126.054688 C 81.101562 128.660156 76.308594 134.113281 72.660156 139.828125 C 51.339844 174.382812 66.554688 219.175781 90.09375 248.558594 C 86.640625 240.9375 82.417969 233.363281 81.164062 225.027344 C 85.9375 229.558594 90.042969 234.878906 94.625 239.640625 C 97.589844 242.871094 100.363281 246.207031 101.824219 250.433594 C 110.933594 269.429688 124.914062 287.371094 144.539062 296.109375 C 135.285156 289.863281 127.773438 280.96875 123.90625 270.464844 C 152.414062 285.6875 182.300781 310.03125 216.695312 301.765625 C 208.078125 302.320312 199.09375 300.351562 191.664062 295.839844 C 205.125 296.113281 218.730469 295.882812 231.832031 292.433594 C 236.175781 291.511719 240.359375 289.644531 244.714844 288.945312 C 241.632812 294.5625 235.890625 298.023438 230.515625 301.105469 C 241.894531 299.359375 250.960938 290.792969 258.773438 282.875 C 286.015625 263.476562 309.578125 235.796875 312.21875 201.152344 C 286.527344 287.597656 179.757812 313.527344 120.234375 244.542969 Z M 177.089844 288.027344 C 140.105469 281.105469 95.289062 246.375 87.542969 208.253906 C 91.601562 211.550781 94.691406 216.15625 97.03125 220.878906 C 112.296875 253.507812 143.09375 279.652344 178.339844 287.738281 C 178.058594 287.800781 177.777344 287.867188 177.089844 288.027344 Z M 177.089844 288.027344 " fill-opacity="1" fill-rule="nonzero"/></g><path fill="#000000" d="M 189.746094 60.511719 C 195.128906 61.84375 200.445312 63.773438 205.859375 64.804688 C 200.914062 59.167969 194.476562 54.902344 188.976562 49.816406 C 178.066406 39.613281 169.371094 27.484375 160.886719 15.269531 C 165.601562 31.113281 174.804688 45.53125 185.757812 58.027344 C 186.871094 59.269531 188.160156 60.082031 189.746094 60.511719 Z M 189.746094 60.511719 " fill-opacity="1" fill-rule="nonzero"/><path fill="#000000" d="M 150.941406 65.699219 C 154.28125 64.859375 157.792969 64.5625 161.066406 63.574219 C 152.003906 59.5 141.222656 56.488281 130.847656 58.941406 C 136.558594 61.480469 142.617188 63.222656 148.460938 65.464844 C 149.265625 65.757812 150.03125 65.902344 150.941406 65.699219 Z M 150.941406 65.699219 " fill-opacity="1" fill-rule="nonzero"/><g fill="#000000" fill-opacity="1"><g transform="translate(138.147809, 344.027096)"><g><path d="M 21.421875 -2.34375 L 19.640625 4.859375 L 1.296875 0.328125 L 1.609375 -0.9375 L 3.40625 -0.53125 L 8.75 -22.171875 L 6.96875 -22.640625 L 7.28125 -23.90625 L 24.90625 -19.5625 L 23.171875 -12.546875 L 21.765625 -12.9375 L 22.15625 -14.75 C 19.882812 -17.070312 17.441406 -19.160156 14.828125 -21.015625 L 12.40625 -10.953125 L 19.171875 -9.28125 L 18.84375 -7.921875 L 12.078125 -9.59375 L 9.46875 1.265625 C 12.84375 0.835938 16.179688 0.125 19.484375 -0.875 L 20 -2.65625 Z M 21.421875 -2.34375 "/></g></g></g><g fill="#000000" fill-opacity="1"><g transform="translate(168.716922, 351.087178)"><g><path d="M 33.0625 -0.8125 L 33.046875 0.484375 L 22.734375 0.34375 L 22.75 -0.953125 L 24.765625 -0.96875 L 23.296875 -20.109375 L 15.859375 -3.9375 L 14.703125 -3.953125 L 7.25 -20.46875 L 6.234375 -1.25 L 8.25 -1.171875 L 8.234375 0.125 L 0.078125 0 L 0.09375 -1.296875 L 1.546875 -1.328125 L 5.453125 -23.546875 L 3.421875 -23.609375 L 3.4375 -24.921875 L 12 -24.796875 L 17.8125 -12.515625 L 23.1875 -24.625 L 30.890625 -24.515625 L 30.875 -23.203125 L 28.890625 -23.203125 L 31.609375 -0.875 Z M 33.0625 -0.8125 "/></g></g></g><g fill="#000000" fill-opacity="1"><g transform="translate(212.076637, 350.041938)"><g><path d="M 24.765625 -7.0625 L 25.0625 -5.796875 L 16.296875 -3.78125 L 9.125 -12.359375 L 9.21875 -12.453125 C 8.664062 -12.285156 7.890625 -12.054688 6.890625 -11.765625 L 8.828125 -3.421875 L 10.59375 -3.78125 L 10.890625 -2.515625 L 1.3125 -0.296875 L 1.015625 -1.5625 L 2.796875 -2.03125 L -2.234375 -23.734375 L -4.015625 -23.34375 L -4.3125 -24.625 L 2.703125 -26.171875 L 8.015625 -27.859375 C 9.742188 -28.265625 11.304688 -28.285156 12.703125 -27.921875 C 14.109375 -27.566406 15.253906 -26.925781 16.140625 -26 C 17.035156 -25.082031 17.632812 -23.96875 17.9375 -22.65625 C 18.28125 -21.15625 18.144531 -19.75 17.53125 -18.4375 C 16.925781 -17.125 15.832031 -15.925781 14.25 -14.84375 L 22.984375 -6.703125 Z M 6.5625 -13.171875 C 8.53125 -13.765625 9.972656 -14.679688 10.890625 -15.921875 C 11.804688 -17.171875 12.070312 -18.628906 11.6875 -20.296875 C 11.40625 -21.484375 10.875 -22.492188 10.09375 -23.328125 C 9.3125 -24.171875 8.367188 -24.753906 7.265625 -25.078125 C 6.171875 -25.410156 5.015625 -25.4375 3.796875 -25.15625 Z M 6.5625 -13.171875 "/></g></g></g></svg>